<svg width="24" height="24" viewBox="0 0 20 20" fill="none" xmlns="http://www.w3.org/2000/svg">
<path d="M14.4996 3.00304L13.8706 2.51004C13.3979 2.13852 12.8027 1.95847 12.2033 2.00569C11.6039 2.05291 11.0442 2.32394 10.6355 2.76491C10.2268 3.20588 9.99897 3.78449 9.99732 4.38574C9.99568 4.98699 10.2203 5.56684 10.6266 6.01004L14.1296 9.84004C14.1765 9.89128 14.2335 9.93219 14.297 9.96019C14.3605 9.98818 14.4292 10.0026 14.4986 10.0026C14.568 10.0026 14.6367 9.98818 14.7002 9.96019C14.7638 9.93219 14.8208 9.89128 14.8676 9.84004L18.3716 6.01004C18.7779 5.56684 19.0026 4.98699 19.0009 4.38574C18.9993 3.78449 18.7715 3.20588 18.3627 2.76491C17.954 2.32394 17.3943 2.05291 16.795 2.00569C16.1956 1.95847 15.6003 2.13852 15.1276 2.51004L14.4986 3.00304H14.4996ZM15.8796 13.09L15.0546 10.897C15.2586 10.816 15.4476 10.689 15.6056 10.515L15.8616 10.235L16.7996 12.73C17.0086 13.2926 17.0441 13.9049 16.9015 14.4878C16.7589 15.0708 16.4447 15.5975 15.9996 16L14.7796 17.1C14.1685 17.6418 13.3762 17.9344 12.5596 17.92C12.045 17.9175 11.5357 17.8156 11.0596 17.62C8.87599 16.7746 6.55106 16.3537 4.20962 16.38C3.99231 16.3863 3.77732 16.3339 3.58728 16.2283C3.39723 16.1227 3.23914 15.9679 3.12962 15.78C3.04186 15.628 2.99565 15.4556 2.99565 15.28C2.99565 15.1045 3.04186 14.9321 3.12962 14.78C3.45297 14.3291 3.86248 13.9466 4.3345 13.6548C4.80651 13.363 5.33167 13.1677 5.87962 13.08L2.41962 9.63004C2.24032 9.451 2.10733 9.23097 2.03215 8.98899C1.95698 8.74701 1.94187 8.49036 1.98816 8.24123C2.03444 7.9921 2.14071 7.758 2.29777 7.55916C2.45484 7.36033 2.65798 7.20274 2.88962 7.10004C2.64883 6.8452 2.50091 6.51668 2.46971 6.16746C2.43851 5.81825 2.52586 5.46871 2.71767 5.17522C2.90947 4.88173 3.19455 4.66142 3.52692 4.54981C3.85929 4.4382 4.21956 4.4418 4.54962 4.56004C4.61962 4.32004 4.74962 4.10304 4.92962 3.93004C5.0737 3.78491 5.24507 3.66973 5.43386 3.59113C5.62265 3.51252 5.82513 3.47206 6.02962 3.47206C6.23412 3.47206 6.4366 3.51252 6.62539 3.59113C6.81418 3.66973 6.98555 3.78491 7.12962 3.93004C7.20782 3.75279 7.31608 3.59039 7.44962 3.45004C7.68092 3.22368 7.97615 3.07382 8.2954 3.0207C8.61464 2.96758 8.94249 3.01378 9.23462 3.15304C9.1072 3.47768 9.03063 3.82005 9.00763 4.16804L8.99962 4.16004C8.88785 4.0505 8.73736 3.9895 8.58087 3.99029C8.42437 3.99108 8.27451 4.0536 8.16385 4.16426C8.05318 4.27492 7.99067 4.42479 7.98987 4.58128C7.98908 4.73778 8.05009 4.88827 8.15962 5.00004L8.85962 5.65004L10.1826 7.00604L11.4346 8.37404C11.4571 8.45818 11.4565 8.54684 11.4327 8.63064C11.4089 8.71444 11.363 8.79024 11.2996 8.85004C11.2547 8.89787 11.2005 8.93599 11.1403 8.96205C11.0801 8.98811 11.0152 9.00156 10.9496 9.00156C10.884 9.00156 10.8191 8.98811 10.7589 8.96205C10.6987 8.93599 10.6445 8.89787 10.5996 8.85004L8.09963 6.36004L7.39962 5.66004L6.39962 4.60004C6.29178 4.49733 6.14856 4.44004 5.99962 4.44004C5.85069 4.44004 5.70747 4.49733 5.59962 4.60004C5.49458 4.70668 5.4357 4.85036 5.4357 5.00004C5.4357 5.14973 5.49458 5.2934 5.59962 5.40004L8.34963 8.15004C8.44091 8.24319 8.49174 8.36859 8.49108 8.49901C8.49042 8.62942 8.43832 8.75431 8.34611 8.84652C8.25389 8.93874 8.129 8.99084 7.99859 8.9915C7.86817 8.99216 7.74277 8.94132 7.64962 8.85004L5.78962 7.00004L4.38962 5.60004C4.31096 5.52216 4.21098 5.46934 4.10232 5.44825C3.99365 5.42715 3.88117 5.43874 3.77908 5.48155C3.677 5.52435 3.58989 5.59645 3.52876 5.68873C3.46763 5.78102 3.43522 5.88935 3.43562 6.00004C3.43562 6.15004 3.49462 6.29304 3.59962 6.40004L4.66962 7.46004L6.84962 9.65004C6.94091 9.74319 6.99174 9.86859 6.99108 9.99901C6.99042 10.1294 6.93832 10.2543 6.84611 10.3465C6.75389 10.4387 6.629 10.4908 6.49859 10.4915C6.36817 10.4922 6.24277 10.4413 6.14962 10.35L4.99962 9.21004L3.95962 8.17004C3.85468 8.06562 3.71267 8.007 3.56462 8.007C3.41658 8.007 3.27456 8.06562 3.16962 8.17004C3.11539 8.21939 3.07221 8.27965 3.04291 8.34686C3.01362 8.41407 2.99886 8.48672 2.99962 8.56004C2.99425 8.64133 3.00668 8.72282 3.03604 8.79881C3.0654 8.87481 3.11099 8.94348 3.16962 9.00004L7.35962 13.15C7.42873 13.2205 7.47542 13.3099 7.49381 13.4069C7.5122 13.5039 7.50147 13.6041 7.46297 13.695C7.42447 13.7859 7.35993 13.8634 7.27747 13.9177C7.19502 13.972 7.09834 14.0006 6.99962 14C6.99962 14 4.84962 14 4.00962 15.35C4.00962 15.39 4.08962 15.46 4.20962 15.46C4.25613 15.4546 4.30311 15.4546 4.34962 15.46C6.77666 15.457 9.18349 15.901 11.4496 16.77C11.8789 16.972 12.3566 17.0482 12.8274 16.9898C13.2982 16.9314 13.7427 16.7408 14.1096 16.44L15.3596 15.29C15.6581 15.0186 15.8675 14.6632 15.9603 14.2706C16.0531 13.8779 16.025 13.4664 15.8796 13.09ZM9.72262 13.947C10.1196 13.749 10.7626 13.634 11.4176 13.743C12.0616 13.851 12.6756 14.166 13.0836 14.777C13.1589 14.8831 13.2725 14.9558 13.4004 14.9795C13.5283 15.0032 13.6604 14.9761 13.7686 14.904C13.8769 14.8319 13.9528 14.7205 13.9802 14.5933C14.0077 14.4662 13.9845 14.3334 13.9156 14.223C13.3236 13.334 12.4376 12.9 11.5816 12.757C10.7376 12.617 9.87963 12.751 9.27663 13.052C9.15899 13.1118 9.06974 13.2156 9.02833 13.3409C8.98692 13.4662 8.9967 13.6027 9.05555 13.7208C9.1144 13.8389 9.21754 13.929 9.34249 13.9713C9.46745 14.0137 9.60408 14.005 9.72262 13.947Z" fill="white"/>
</svg>
