<svg width="748" height="725" viewBox="0 0 748 725" fill="none" xmlns="http://www.w3.org/2000/svg">
<rect x="11" width="725" height="725" rx="25" fill="#FCF0EA"/>
<path d="M373.5 292.2C373.5 302.225 369.518 311.84 362.429 318.929C355.34 326.017 345.726 330 335.7 330C325.675 330 316.061 326.017 308.972 318.929C301.883 311.84 297.9 302.225 297.9 292.2C297.9 282.175 301.883 272.56 308.972 265.471C316.061 258.382 325.675 254.4 335.7 254.4C345.726 254.4 355.34 258.382 362.429 265.471C369.518 272.56 373.5 282.175 373.5 292.2ZM339.9 275.4C339.9 274.286 339.458 273.218 338.67 272.43C337.883 271.642 336.814 271.2 335.7 271.2C334.586 271.2 333.518 271.642 332.731 272.43C331.943 273.218 331.5 274.286 331.5 275.4V288H318.9C317.786 288 316.718 288.442 315.931 289.23C315.143 290.018 314.7 291.086 314.7 292.2C314.7 293.314 315.143 294.382 315.931 295.17C316.718 295.957 317.786 296.4 318.9 296.4H331.5V309C331.5 310.114 331.943 311.182 332.731 311.97C333.518 312.757 334.586 313.2 335.7 313.2C336.814 313.2 337.883 312.757 338.67 311.97C339.458 311.182 339.9 310.114 339.9 309V296.4H352.5C353.614 296.4 354.683 295.957 355.47 295.17C356.258 294.382 356.7 293.314 356.7 292.2C356.7 291.086 356.258 290.018 355.47 289.23C354.683 288.442 353.614 288 352.5 288H339.9V275.4ZM407.1 279.6H380.162C379.34 276.698 378.234 273.885 376.86 271.2H407.1C413.784 271.2 420.194 273.855 424.919 278.581C429.645 283.307 432.3 289.716 432.3 296.4V363.6C432.3 370.283 429.645 376.693 424.919 381.419C420.194 386.145 413.784 388.8 407.1 388.8H339.9C333.217 388.8 326.807 386.145 322.081 381.419C317.355 376.693 314.7 370.283 314.7 363.6V333.36C317.363 334.721 320.169 335.83 323.1 336.661V363.6C323.1 366.733 323.957 369.665 325.452 372.168L364.672 333.629C367.028 331.315 370.198 330.019 373.5 330.019C376.803 330.019 379.973 331.315 382.329 333.629L421.557 372.168C423.096 369.576 423.906 366.615 423.9 363.6V296.4C423.9 291.944 422.13 287.671 418.98 284.521C415.829 281.37 411.556 279.6 407.1 279.6ZM407.1 309C407.1 310.655 406.774 312.293 406.141 313.822C405.508 315.35 404.58 316.739 403.41 317.909C402.24 319.079 400.851 320.008 399.322 320.641C397.793 321.274 396.155 321.6 394.5 321.6C392.846 321.6 391.207 321.274 389.679 320.641C388.15 320.008 386.761 319.079 385.591 317.909C384.421 316.739 383.493 315.35 382.86 313.822C382.226 312.293 381.9 310.655 381.9 309C381.9 305.658 383.228 302.453 385.591 300.09C387.954 297.727 391.159 296.4 394.5 296.4C397.842 296.4 401.047 297.727 403.41 300.09C405.773 302.453 407.1 305.658 407.1 309ZM398.7 309C398.7 307.886 398.258 306.818 397.47 306.03C396.683 305.242 395.614 304.8 394.5 304.8C393.386 304.8 392.318 305.242 391.531 306.03C390.743 306.818 390.3 307.886 390.3 309C390.3 310.114 390.743 311.182 391.531 311.97C392.318 312.757 393.386 313.2 394.5 313.2C395.614 313.2 396.683 312.757 397.47 311.97C398.258 311.182 398.7 310.114 398.7 309ZM331.4 378.098C333.977 379.612 336.912 380.406 339.9 380.4H407.1C410.208 380.4 413.106 379.56 415.601 378.098L376.44 339.626C375.655 338.857 374.6 338.426 373.5 338.426C372.401 338.426 371.345 338.857 370.56 339.626L331.4 378.098Z" fill="#FE9E6D" fill-opacity="0.5"/>
<path d="M326.778 438.96C326.778 439.947 326.564 440.84 326.138 441.64C325.724 442.427 325.091 443.053 324.238 443.52C323.384 443.973 322.304 444.2 320.998 444.2C319.144 444.2 317.738 443.72 316.778 442.76C315.818 441.787 315.338 440.507 315.338 438.92V429.72H317.898V438.66C317.898 439.82 318.164 440.673 318.698 441.22C319.231 441.753 320.024 442.02 321.078 442.02C321.824 442.02 322.424 441.893 322.878 441.64C323.344 441.387 323.684 441.007 323.898 440.5C324.124 439.98 324.238 439.36 324.238 438.64V429.72H326.778V438.96ZM335.859 432.96C337.126 432.96 338.146 433.433 338.919 434.38C339.692 435.313 340.079 436.707 340.079 438.56C340.079 439.787 339.899 440.82 339.539 441.66C339.179 442.5 338.679 443.133 338.039 443.56C337.399 443.987 336.652 444.2 335.799 444.2C335.279 444.2 334.819 444.133 334.419 444C334.019 443.853 333.679 443.673 333.399 443.46C333.119 443.233 332.879 442.993 332.679 442.74H332.519C332.572 442.98 332.612 443.253 332.639 443.56C332.666 443.853 332.679 444.133 332.679 444.4V448.8H330.159V433.16H332.199L332.559 434.6H332.679C332.879 434.293 333.119 434.02 333.399 433.78C333.692 433.527 334.039 433.327 334.439 433.18C334.852 433.033 335.326 432.96 335.859 432.96ZM335.139 435C334.552 435 334.079 435.12 333.719 435.36C333.359 435.587 333.099 435.94 332.939 436.42C332.779 436.9 332.692 437.5 332.679 438.22V438.54C332.679 439.313 332.752 439.967 332.899 440.5C333.059 441.033 333.319 441.44 333.679 441.72C334.052 442 334.552 442.14 335.179 442.14C335.712 442.14 336.146 441.993 336.479 441.7C336.826 441.407 337.079 440.993 337.239 440.46C337.412 439.913 337.499 439.267 337.499 438.52C337.499 437.4 337.306 436.533 336.919 435.92C336.546 435.307 335.952 435 335.139 435ZM345.199 444H342.679V428.8H345.199V444ZM358.101 438.56C358.101 439.467 357.981 440.267 357.741 440.96C357.501 441.653 357.154 442.247 356.701 442.74C356.261 443.22 355.714 443.587 355.061 443.84C354.421 444.08 353.707 444.2 352.921 444.2C352.174 444.2 351.487 444.08 350.861 443.84C350.234 443.587 349.687 443.22 349.221 442.74C348.767 442.247 348.414 441.653 348.161 440.96C347.907 440.267 347.781 439.467 347.781 438.56C347.781 437.36 347.987 436.347 348.401 435.52C348.814 434.68 349.407 434.047 350.181 433.62C350.967 433.18 351.894 432.96 352.961 432.96C353.974 432.96 354.861 433.18 355.621 433.62C356.394 434.047 357.001 434.68 357.441 435.52C357.881 436.347 358.101 437.36 358.101 438.56ZM350.361 438.56C350.361 439.32 350.447 439.973 350.621 440.52C350.807 441.053 351.087 441.46 351.461 441.74C351.847 442.02 352.341 442.16 352.941 442.16C353.554 442.16 354.047 442.02 354.421 441.74C354.807 441.46 355.087 441.053 355.261 440.52C355.434 439.973 355.521 439.32 355.521 438.56C355.521 437.787 355.427 437.14 355.241 436.62C355.067 436.087 354.787 435.687 354.401 435.42C354.027 435.14 353.541 435 352.941 435C352.034 435 351.374 435.307 350.961 435.92C350.561 436.533 350.361 437.413 350.361 438.56ZM365.026 432.96C366.426 432.96 367.486 433.267 368.206 433.88C368.939 434.48 369.306 435.427 369.306 436.72V444H367.526L367.026 442.5H366.946C366.639 442.887 366.319 443.213 365.986 443.48C365.666 443.733 365.293 443.913 364.866 444.02C364.453 444.14 363.946 444.2 363.346 444.2C362.706 444.2 362.126 444.08 361.606 443.84C361.099 443.6 360.699 443.233 360.406 442.74C360.113 442.233 359.966 441.6 359.966 440.84C359.966 439.72 360.373 438.88 361.186 438.32C362.013 437.747 363.259 437.433 364.926 437.38L366.806 437.32V436.78C366.806 436.087 366.639 435.593 366.306 435.3C365.973 435.007 365.506 434.86 364.906 434.86C364.359 434.86 363.833 434.94 363.326 435.1C362.819 435.26 362.326 435.447 361.846 435.66L361.046 433.9C361.579 433.62 362.186 433.393 362.866 433.22C363.559 433.047 364.279 432.96 365.026 432.96ZM365.486 438.92C364.379 438.96 363.613 439.153 363.186 439.5C362.759 439.833 362.546 440.287 362.546 440.86C362.546 441.367 362.699 441.733 363.006 441.96C363.313 442.187 363.706 442.3 364.186 442.3C364.919 442.3 365.539 442.093 366.046 441.68C366.553 441.253 366.806 440.627 366.806 439.8V438.88L365.486 438.92ZM376.044 444.2C374.79 444.2 373.77 443.733 372.984 442.8C372.21 441.853 371.824 440.453 371.824 438.6C371.824 436.747 372.217 435.347 373.004 434.4C373.79 433.44 374.824 432.96 376.104 432.96C376.637 432.96 377.104 433.033 377.504 433.18C377.917 433.313 378.27 433.5 378.564 433.74C378.857 433.98 379.104 434.247 379.304 434.54H379.424C379.384 434.353 379.344 434.067 379.304 433.68C379.264 433.293 379.244 432.933 379.244 432.6V428.8H381.764V444H379.804L379.344 442.58H379.244C379.044 442.873 378.797 443.147 378.504 443.4C378.21 443.64 377.864 443.833 377.464 443.98C377.064 444.127 376.59 444.2 376.044 444.2ZM376.804 442.16C377.737 442.16 378.397 441.893 378.784 441.36C379.17 440.827 379.364 440.02 379.364 438.94V438.62C379.364 437.447 379.177 436.553 378.804 435.94C378.444 435.327 377.764 435.02 376.764 435.02C376.004 435.02 375.417 435.34 375.004 435.98C374.59 436.607 374.384 437.493 374.384 438.64C374.384 439.787 374.59 440.66 375.004 441.26C375.417 441.86 376.017 442.16 376.804 442.16ZM388.559 433.16H391.299L393.459 439.28C393.552 439.547 393.632 439.807 393.699 440.06C393.779 440.3 393.845 440.547 393.899 440.8C393.952 441.053 393.992 441.307 394.019 441.56H394.099C394.152 441.227 394.232 440.86 394.339 440.46C394.459 440.06 394.579 439.667 394.699 439.28L396.779 433.16H399.499L394.879 445.44C394.612 446.147 394.272 446.753 393.859 447.26C393.459 447.767 392.979 448.147 392.419 448.4C391.872 448.667 391.252 448.8 390.559 448.8C390.239 448.8 389.952 448.78 389.699 448.74C389.459 448.713 389.245 448.68 389.059 448.64V446.64C389.205 446.667 389.379 446.693 389.579 446.72C389.792 446.747 390.012 446.76 390.239 446.76C390.652 446.76 391.005 446.673 391.299 446.5C391.605 446.34 391.859 446.113 392.059 445.82C392.272 445.527 392.445 445.2 392.579 444.84L392.899 443.96L388.559 433.16ZM410.796 438.56C410.796 439.467 410.676 440.267 410.436 440.96C410.196 441.653 409.849 442.247 409.396 442.74C408.956 443.22 408.409 443.587 407.756 443.84C407.116 444.08 406.403 444.2 405.616 444.2C404.869 444.2 404.183 444.08 403.556 443.84C402.929 443.587 402.383 443.22 401.916 442.74C401.463 442.247 401.109 441.653 400.856 440.96C400.603 440.267 400.476 439.467 400.476 438.56C400.476 437.36 400.683 436.347 401.096 435.52C401.509 434.68 402.103 434.047 402.876 433.62C403.663 433.18 404.589 432.96 405.656 432.96C406.669 432.96 407.556 433.18 408.316 433.62C409.089 434.047 409.696 434.68 410.136 435.52C410.576 436.347 410.796 437.36 410.796 438.56ZM403.056 438.56C403.056 439.32 403.143 439.973 403.316 440.52C403.503 441.053 403.783 441.46 404.156 441.74C404.543 442.02 405.036 442.16 405.636 442.16C406.249 442.16 406.743 442.02 407.116 441.74C407.503 441.46 407.783 441.053 407.956 440.52C408.129 439.973 408.216 439.32 408.216 438.56C408.216 437.787 408.123 437.14 407.936 436.62C407.763 436.087 407.483 435.687 407.096 435.42C406.723 435.14 406.236 435 405.636 435C404.729 435 404.069 435.307 403.656 435.92C403.256 436.533 403.056 437.413 403.056 438.56ZM423.021 433.16V444H421.041L420.701 442.6H420.581C420.355 442.973 420.061 443.28 419.701 443.52C419.341 443.747 418.948 443.913 418.521 444.02C418.095 444.14 417.655 444.2 417.201 444.2C416.401 444.2 415.708 444.06 415.121 443.78C414.535 443.5 414.088 443.073 413.781 442.5C413.475 441.913 413.321 441.16 413.321 440.24V433.16H415.841V439.74C415.841 440.54 416.001 441.147 416.321 441.56C416.641 441.96 417.148 442.16 417.841 442.16C418.521 442.16 419.055 442.02 419.441 441.74C419.828 441.447 420.101 441.027 420.261 440.48C420.421 439.933 420.501 439.26 420.501 438.46V433.16H423.021ZM431.913 432.96C432.073 432.96 432.26 432.967 432.473 432.98C432.687 432.993 432.867 433.02 433.013 433.06L432.793 435.4C432.673 435.373 432.513 435.353 432.313 435.34C432.127 435.313 431.96 435.3 431.813 435.3C431.413 435.3 431.027 435.367 430.653 435.5C430.293 435.62 429.967 435.807 429.673 436.06C429.393 436.3 429.167 436.613 428.993 437C428.833 437.387 428.753 437.847 428.753 438.38V444H426.233V433.16H428.173L428.533 435.04H428.653C428.867 434.653 429.133 434.307 429.453 434C429.773 433.68 430.14 433.427 430.553 433.24C430.98 433.053 431.433 432.96 431.913 432.96ZM294.061 472.2C293.034 472.2 292.141 472.007 291.381 471.62C290.634 471.22 290.054 470.613 289.641 469.8C289.241 468.973 289.041 467.92 289.041 466.64C289.041 465.307 289.261 464.227 289.701 463.4C290.154 462.56 290.774 461.947 291.561 461.56C292.347 461.16 293.247 460.96 294.261 460.96C294.941 460.96 295.547 461.027 296.081 461.16C296.614 461.293 297.067 461.453 297.441 461.64L296.701 463.62C296.287 463.46 295.874 463.327 295.461 463.22C295.047 463.1 294.647 463.04 294.261 463.04C293.661 463.04 293.161 463.173 292.761 463.44C292.374 463.707 292.087 464.107 291.901 464.64C291.714 465.16 291.621 465.82 291.621 466.62C291.621 467.393 291.714 468.04 291.901 468.56C292.101 469.08 292.394 469.473 292.781 469.74C293.167 469.993 293.647 470.12 294.221 470.12C294.834 470.12 295.374 470.047 295.841 469.9C296.307 469.753 296.747 469.553 297.161 469.3V471.48C296.747 471.733 296.301 471.913 295.821 472.02C295.354 472.14 294.767 472.2 294.061 472.2ZM304.02 460.96C305.42 460.96 306.48 461.267 307.2 461.88C307.933 462.48 308.3 463.427 308.3 464.72V472H306.52L306.02 470.5H305.94C305.633 470.887 305.313 471.213 304.98 471.48C304.66 471.733 304.287 471.913 303.86 472.02C303.447 472.14 302.94 472.2 302.34 472.2C301.7 472.2 301.12 472.08 300.6 471.84C300.093 471.6 299.693 471.233 299.4 470.74C299.107 470.233 298.96 469.6 298.96 468.84C298.96 467.72 299.367 466.88 300.18 466.32C301.007 465.747 302.253 465.433 303.92 465.38L305.8 465.32V464.78C305.8 464.087 305.633 463.593 305.3 463.3C304.967 463.007 304.5 462.86 303.9 462.86C303.353 462.86 302.827 462.94 302.32 463.1C301.813 463.26 301.32 463.447 300.84 463.66L300.04 461.9C300.573 461.62 301.18 461.393 301.86 461.22C302.553 461.047 303.273 460.96 304.02 460.96ZM304.48 466.92C303.373 466.96 302.607 467.153 302.18 467.5C301.753 467.833 301.54 468.287 301.54 468.86C301.54 469.367 301.693 469.733 302 469.96C302.307 470.187 302.7 470.3 303.18 470.3C303.913 470.3 304.533 470.093 305.04 469.68C305.547 469.253 305.8 468.627 305.8 467.8V466.88L304.48 466.92ZM323.878 460.96C325.105 460.96 326.025 461.273 326.638 461.9C327.265 462.527 327.578 463.54 327.578 464.94V472H325.058V465.42C325.058 464.62 324.911 464.02 324.618 463.62C324.325 463.207 323.858 463 323.218 463C322.338 463 321.711 463.287 321.338 463.86C320.965 464.433 320.778 465.267 320.778 466.36V472H318.258V465.42C318.258 464.887 318.191 464.44 318.058 464.08C317.925 463.72 317.718 463.453 317.438 463.28C317.171 463.093 316.825 463 316.398 463C315.798 463 315.318 463.147 314.958 463.44C314.598 463.72 314.345 464.133 314.198 464.68C314.051 465.227 313.978 465.9 313.978 466.7V472H311.458V461.16H313.398L313.758 462.58H313.898C314.125 462.207 314.398 461.9 314.718 461.66C315.051 461.42 315.418 461.247 315.818 461.14C316.231 461.02 316.645 460.96 317.058 460.96C317.871 460.96 318.558 461.1 319.118 461.38C319.678 461.647 320.098 462.067 320.378 462.64H320.578C320.911 462.053 321.378 461.627 321.978 461.36C322.591 461.093 323.225 460.96 323.878 460.96ZM336.435 460.96C337.702 460.96 338.722 461.433 339.495 462.38C340.269 463.313 340.655 464.707 340.655 466.56C340.655 467.787 340.475 468.82 340.115 469.66C339.755 470.5 339.255 471.133 338.615 471.56C337.975 471.987 337.229 472.2 336.375 472.2C335.855 472.2 335.395 472.133 334.995 472C334.595 471.853 334.255 471.673 333.975 471.46C333.695 471.233 333.455 470.993 333.255 470.74H333.095C333.149 470.98 333.189 471.253 333.215 471.56C333.242 471.853 333.255 472.133 333.255 472.4V476.8H330.735V461.16H332.775L333.135 462.6H333.255C333.455 462.293 333.695 462.02 333.975 461.78C334.269 461.527 334.615 461.327 335.015 461.18C335.429 461.033 335.902 460.96 336.435 460.96ZM335.715 463C335.129 463 334.655 463.12 334.295 463.36C333.935 463.587 333.675 463.94 333.515 464.42C333.355 464.9 333.269 465.5 333.255 466.22V466.54C333.255 467.313 333.329 467.967 333.475 468.5C333.635 469.033 333.895 469.44 334.255 469.72C334.629 470 335.129 470.14 335.755 470.14C336.289 470.14 336.722 469.993 337.055 469.7C337.402 469.407 337.655 468.993 337.815 468.46C337.989 467.913 338.075 467.267 338.075 466.52C338.075 465.4 337.882 464.533 337.495 463.92C337.122 463.307 336.529 463 335.715 463ZM347.575 460.96C348.975 460.96 350.035 461.267 350.755 461.88C351.488 462.48 351.855 463.427 351.855 464.72V472H350.075L349.575 470.5H349.495C349.188 470.887 348.868 471.213 348.535 471.48C348.215 471.733 347.841 471.913 347.415 472.02C347.001 472.14 346.495 472.2 345.895 472.2C345.255 472.2 344.675 472.08 344.155 471.84C343.648 471.6 343.248 471.233 342.955 470.74C342.661 470.233 342.515 469.6 342.515 468.84C342.515 467.72 342.921 466.88 343.735 466.32C344.561 465.747 345.808 465.433 347.475 465.38L349.355 465.32V464.78C349.355 464.087 349.188 463.593 348.855 463.3C348.521 463.007 348.055 462.86 347.455 462.86C346.908 462.86 346.381 462.94 345.875 463.1C345.368 463.26 344.875 463.447 344.395 463.66L343.595 461.9C344.128 461.62 344.735 461.393 345.415 461.22C346.108 461.047 346.828 460.96 347.575 460.96ZM348.035 466.92C346.928 466.96 346.161 467.153 345.735 467.5C345.308 467.833 345.095 468.287 345.095 468.86C345.095 469.367 345.248 469.733 345.555 469.96C345.861 470.187 346.255 470.3 346.735 470.3C347.468 470.3 348.088 470.093 348.595 469.68C349.101 469.253 349.355 468.627 349.355 467.8V466.88L348.035 466.92ZM357.533 461.16V472H355.013V461.16H357.533ZM356.273 456.98C356.646 456.98 356.973 457.08 357.253 457.28C357.533 457.467 357.673 457.807 357.673 458.3C357.673 458.78 357.533 459.127 357.253 459.34C356.973 459.54 356.646 459.64 356.273 459.64C355.886 459.64 355.553 459.54 355.273 459.34C355.006 459.127 354.873 458.78 354.873 458.3C354.873 457.807 355.006 457.467 355.273 457.28C355.553 457.08 355.886 456.98 356.273 456.98ZM364.395 460.96C365.075 460.96 365.688 461.093 366.235 461.36C366.781 461.627 367.241 462.027 367.615 462.56H367.715L367.955 461.16H370.055V472.08C370.055 473.107 369.861 473.967 369.475 474.66C369.088 475.367 368.508 475.9 367.735 476.26C366.961 476.62 365.995 476.8 364.835 476.8C364.061 476.8 363.348 476.747 362.695 476.64C362.041 476.547 361.421 476.38 360.835 476.14V474.06C361.248 474.233 361.675 474.38 362.115 474.5C362.568 474.633 363.035 474.733 363.515 474.8C363.995 474.867 364.488 474.9 364.995 474.9C365.821 474.9 366.448 474.667 366.875 474.2C367.315 473.733 367.535 473.067 367.535 472.2V471.92C367.535 471.72 367.541 471.487 367.555 471.22C367.581 470.953 367.601 470.74 367.615 470.58H367.535C367.161 471.14 366.708 471.553 366.175 471.82C365.641 472.073 365.028 472.2 364.335 472.2C363.015 472.2 361.981 471.707 361.235 470.72C360.488 469.733 360.115 468.36 360.115 466.6C360.115 465.413 360.281 464.4 360.615 463.56C360.961 462.72 361.455 462.08 362.095 461.64C362.735 461.187 363.501 460.96 364.395 460.96ZM365.055 463.02C364.548 463.02 364.115 463.16 363.755 463.44C363.408 463.707 363.141 464.107 362.955 464.64C362.781 465.173 362.695 465.84 362.695 466.64C362.695 467.813 362.895 468.7 363.295 469.3C363.695 469.9 364.295 470.2 365.095 470.2C365.548 470.2 365.935 470.147 366.255 470.04C366.575 469.92 366.835 469.733 367.035 469.48C367.248 469.213 367.408 468.88 367.515 468.48C367.621 468.067 367.675 467.573 367.675 467V466.62C367.675 465.753 367.581 465.06 367.395 464.54C367.208 464.007 366.921 463.62 366.535 463.38C366.161 463.14 365.668 463.02 365.055 463.02ZM379.074 460.96C380.288 460.96 381.234 461.273 381.914 461.9C382.608 462.527 382.954 463.54 382.954 464.94V472H380.434V465.44C380.434 464.627 380.274 464.02 379.954 463.62C379.634 463.207 379.128 463 378.434 463C377.421 463 376.728 463.32 376.354 463.96C375.981 464.587 375.794 465.5 375.794 466.7V472H373.274V461.16H375.214L375.574 462.58H375.714C375.954 462.207 376.248 461.9 376.594 461.66C376.941 461.42 377.328 461.247 377.754 461.14C378.181 461.02 378.621 460.96 379.074 460.96ZM397.002 460.96C398.268 460.96 399.288 461.433 400.062 462.38C400.835 463.313 401.222 464.707 401.222 466.56C401.222 467.787 401.042 468.82 400.682 469.66C400.322 470.5 399.822 471.133 399.182 471.56C398.542 471.987 397.795 472.2 396.942 472.2C396.422 472.2 395.962 472.133 395.562 472C395.162 471.853 394.822 471.673 394.542 471.46C394.262 471.233 394.022 470.993 393.822 470.74H393.662C393.715 470.98 393.755 471.253 393.782 471.56C393.808 471.853 393.822 472.133 393.822 472.4V476.8H391.302V461.16H393.342L393.702 462.6H393.822C394.022 462.293 394.262 462.02 394.542 461.78C394.835 461.527 395.182 461.327 395.582 461.18C395.995 461.033 396.468 460.96 397.002 460.96ZM396.282 463C395.695 463 395.222 463.12 394.862 463.36C394.502 463.587 394.242 463.94 394.082 464.42C393.922 464.9 393.835 465.5 393.822 466.22V466.54C393.822 467.313 393.895 467.967 394.042 468.5C394.202 469.033 394.462 469.44 394.822 469.72C395.195 470 395.695 470.14 396.322 470.14C396.855 470.14 397.288 469.993 397.622 469.7C397.968 469.407 398.222 468.993 398.382 468.46C398.555 467.913 398.642 467.267 398.642 466.52C398.642 465.4 398.448 464.533 398.062 463.92C397.688 463.307 397.095 463 396.282 463ZM406.341 461.16V472H403.821V461.16H406.341ZM405.081 456.98C405.455 456.98 405.781 457.08 406.061 457.28C406.341 457.467 406.481 457.807 406.481 458.3C406.481 458.78 406.341 459.127 406.061 459.34C405.781 459.54 405.455 459.64 405.081 459.64C404.695 459.64 404.361 459.54 404.081 459.34C403.815 459.127 403.681 458.78 403.681 458.3C403.681 457.807 403.815 457.467 404.081 457.28C404.361 457.08 404.695 456.98 405.081 456.98ZM413.943 472.2C412.917 472.2 412.023 472.007 411.263 471.62C410.517 471.22 409.937 470.613 409.523 469.8C409.123 468.973 408.923 467.92 408.923 466.64C408.923 465.307 409.143 464.227 409.583 463.4C410.037 462.56 410.657 461.947 411.443 461.56C412.23 461.16 413.13 460.96 414.143 460.96C414.823 460.96 415.43 461.027 415.963 461.16C416.497 461.293 416.95 461.453 417.323 461.64L416.583 463.62C416.17 463.46 415.757 463.327 415.343 463.22C414.93 463.1 414.53 463.04 414.143 463.04C413.543 463.04 413.043 463.173 412.643 463.44C412.257 463.707 411.97 464.107 411.783 464.64C411.597 465.16 411.503 465.82 411.503 466.62C411.503 467.393 411.597 468.04 411.783 468.56C411.983 469.08 412.277 469.473 412.663 469.74C413.05 469.993 413.53 470.12 414.103 470.12C414.717 470.12 415.257 470.047 415.723 469.9C416.19 469.753 416.63 469.553 417.043 469.3V471.48C416.63 471.733 416.183 471.913 415.703 472.02C415.237 472.14 414.65 472.2 413.943 472.2ZM423.783 470.18C424.103 470.18 424.41 470.153 424.703 470.1C424.996 470.033 425.27 469.96 425.523 469.88V471.76C425.256 471.88 424.91 471.98 424.483 472.06C424.056 472.153 423.61 472.2 423.143 472.2C422.53 472.2 421.97 472.1 421.463 471.9C420.97 471.687 420.57 471.327 420.263 470.82C419.97 470.313 419.823 469.607 419.823 468.7V463.06H418.363V461.96L419.963 461.08L420.763 458.78H422.343V461.16H425.423V463.06H422.343V468.68C422.343 469.187 422.476 469.567 422.743 469.82C423.01 470.06 423.356 470.18 423.783 470.18ZM437.328 461.16V472H435.348L435.008 470.6H434.888C434.661 470.973 434.368 471.28 434.008 471.52C433.648 471.747 433.255 471.913 432.828 472.02C432.401 472.14 431.961 472.2 431.508 472.2C430.708 472.2 430.015 472.06 429.428 471.78C428.841 471.5 428.395 471.073 428.088 470.5C427.781 469.913 427.628 469.16 427.628 468.24V461.16H430.148V467.74C430.148 468.54 430.308 469.147 430.628 469.56C430.948 469.96 431.455 470.16 432.148 470.16C432.828 470.16 433.361 470.02 433.748 469.74C434.135 469.447 434.408 469.027 434.568 468.48C434.728 467.933 434.808 467.26 434.808 466.46V461.16H437.328ZM446.22 460.96C446.38 460.96 446.567 460.967 446.78 460.98C446.993 460.993 447.173 461.02 447.32 461.06L447.1 463.4C446.98 463.373 446.82 463.353 446.62 463.34C446.433 463.313 446.267 463.3 446.12 463.3C445.72 463.3 445.333 463.367 444.96 463.5C444.6 463.62 444.273 463.807 443.98 464.06C443.7 464.3 443.473 464.613 443.3 465C443.14 465.387 443.06 465.847 443.06 466.38V472H440.54V461.16H442.48L442.84 463.04H442.96C443.173 462.653 443.44 462.307 443.76 462C444.08 461.68 444.447 461.427 444.86 461.24C445.287 461.053 445.74 460.96 446.22 460.96ZM453.298 460.96C454.272 460.96 455.105 461.16 455.798 461.56C456.505 461.947 457.052 462.507 457.438 463.24C457.825 463.96 458.018 464.84 458.018 465.88V467.16H450.858C450.885 468.147 451.158 468.913 451.678 469.46C452.198 469.993 452.918 470.26 453.838 470.26C454.545 470.26 455.172 470.193 455.718 470.06C456.278 469.913 456.852 469.707 457.438 469.44V471.46C456.905 471.713 456.352 471.9 455.778 472.02C455.205 472.14 454.518 472.2 453.718 472.2C452.665 472.2 451.725 472 450.898 471.6C450.085 471.187 449.445 470.567 448.978 469.74C448.525 468.913 448.298 467.887 448.298 466.66C448.298 465.42 448.505 464.38 448.918 463.54C449.345 462.687 449.932 462.047 450.678 461.62C451.425 461.18 452.298 460.96 453.298 460.96ZM453.298 462.82C452.632 462.82 452.085 463.04 451.658 463.48C451.245 463.907 450.998 464.547 450.918 465.4H455.578C455.578 464.893 455.492 464.447 455.318 464.06C455.158 463.673 454.912 463.373 454.578 463.16C454.245 462.933 453.818 462.82 453.298 462.82Z" fill="#7C7C91"/>
<path d="M30.3495 13.9993C31.4768 11.8729 34.5232 11.873 35.6505 13.9993L44.0025 29.7523C44.2836 30.2826 44.7174 30.7164 45.2477 30.9975L61.0007 39.3495C63.1271 40.4768 63.127 43.5232 61.0007 44.6505L45.2477 53.0025C44.7174 53.2836 44.2836 53.7174 44.0025 54.2477L35.6505 70.0007C34.5232 72.1271 31.4768 72.127 30.3495 70.0007L21.9975 54.2477C21.7164 53.7174 21.2826 53.2836 20.7523 53.0025L4.99929 44.6505C2.87296 43.5232 2.87295 40.4768 4.99928 39.3495L20.7523 30.9975C21.2826 30.7164 21.7164 30.2826 21.9975 29.7523L30.3495 13.9993Z" fill="#FB8368"/>
<path d="M697.766 631.081C703.095 622.712 714.32 628.209 719.266 632.004C720.174 629.235 735.921 612.313 745.005 626.774C755.907 645.233 734.104 664.924 726.533 672C691.407 652.617 694.738 640.003 697.766 631.081Z" fill="#FB8368"/>
</svg>
